<?xml version="1.0" encoding="UTF-8" standalone="no"?>
<!DOCTYPE svg PUBLIC "-//W3C//DTD SVG 1.1//EN" "http://www.w3.org/Graphics/SVG/1.1/DTD/svg11.dtd">
<svg xmlns="http://www.w3.org/2000/svg" version="1.1" viewBox="0.00 0.00 1024.00 1024.00">
<g stroke-width="2.00" fill="none" stroke-linecap="butt">
<path stroke="#394144" vector-effect="non-scaling-stroke" d="
  M 614.14 19.34
  Q 616.40 21.72 617.30 23.16
  C 620.93 28.94 614.49 38.23 611.34 42.71
  A 0.68 0.68 0.0 0 0 611.74 43.76
  Q 614.42 44.42 617.22 45.27
  Q 734.97 80.84 826.21 163.04
  Q 843.05 178.20 859.39 194.85
  A 1.17 1.17 0.0 0 0 860.99 194.93
  L 866.12 190.66
  A 1.99 1.99 0.0 0 1 868.72 190.71
  L 873.18 194.71
  A 1.69 1.68 46.7 0 0 875.33 194.78
  L 894.37 179.81
  A 0.90 0.89 -40.4 0 0 894.48 178.50
  Q 856.53 136.70 811.09 102.94
  Q 770.60 72.84 731.71 52.07
  C 694.48 32.19 657.10 19.34 615.56 11.05"
/>
<path stroke="#213b61" vector-effect="non-scaling-stroke" d="
  M 615.56 11.05
  Q 608.76 9.41 597.00 8.01
  Q 577.32 5.67 557.62 3.37
  Q 534.45 0.66 500.93 0.75
  C 493.06 0.78 484.36 1.32 477.25 1.99
  C 423.22 7.01 370.80 18.63 319.99 39.21
  C 293.25 50.04 267.87 62.04 244.25 76.98
  Q 219.82 92.44 204.41 104.15
  Q 172.55 128.36 139.18 163.15
  Q 128.06 174.75 120.45 184.45
  C 93.76 218.44 68.53 254.16 49.41 295.00
  C 39.13 316.97 30.81 337.24 24.47 358.76
  C 9.13 410.82 0.63 465.66 1.68 520.25
  Q 1.87 530.18 2.28 540.24
  C 3.09 560.15 5.79 578.30 8.28 597.25
  Q 9.97 610.14 15.37 631.22
  Q 22.28 658.23 31.43 684.55
  C 39.17 706.79 48.84 728.40 59.68 749.31
  Q 77.46 783.63 100.68 814.54
  Q 113.86 832.08 123.43 843.06
  Q 139.09 861.01 143.96 866.04
  Q 169.79 892.71 199.53 914.94
  Q 211.77 924.08 224.03 933.20
  Q 233.12 939.96 259.40 955.60
  C 281.25 968.61 307.00 980.14 332.54 989.95
  Q 374.76 1006.16 419.51 1013.51
  Q 463.10 1020.66 479.75 1022.20
  Q 498.93 1023.98 510.50 1023.79
  Q 548.54 1023.17 590.29 1016.52
  C 615.12 1012.57 639.72 1006.41 663.74 999.02
  C 696.32 989.01 728.48 975.82 758.19 959.10
  C 809.97 929.95 858.00 892.25 896.78 847.05
  C 907.70 834.31 916.12 824.43 928.07 808.07
  C 954.40 772.01 974.41 733.40 990.20 691.72
  C 1002.37 659.59 1010.38 626.44 1016.34 592.62
  C 1022.48 557.74 1023.21 523.59 1022.08 486.00
  C 1020.29 426.40 1005.53 367.95 982.99 312.53
  Q 978.03 300.32 969.30 283.69
  Q 946.71 240.62 918.08 204.26
  C 912.45 197.10 906.01 189.96 899.75 183.01
  Q 898.33 181.43 896.93 180.61
  Q 896.32 180.25 895.77 180.69
  L 876.49 196.13
  Q 875.69 196.77 876.33 197.57
  Q 883.88 206.91 890.96 215.74
  C 911.65 241.56 929.32 269.72 943.85 299.46
  Q 957.54 327.49 965.94 349.28
  Q 979.01 383.17 985.91 421.39
  C 989.87 443.34 991.63 465.37 992.87 488.50
  Q 995.06 529.44 990.22 567.99
  C 986.50 597.60 982.46 623.64 974.15 651.32
  C 953.55 720.02 917.38 784.29 868.43 836.69
  Q 832.85 874.78 789.84 905.57
  C 771.22 918.91 750.75 930.13 730.45 940.69
  C 702.41 955.27 673.49 966.05 643.20 974.91
  Q 602.85 986.72 561.00 990.78
  C 533.80 993.42 506.29 994.11 479.04 992.03
  C 435.05 988.68 389.97 980.38 344.56 963.91
  Q 309.69 951.26 272.44 929.32
  Q 233.73 906.51 204.13 882.46
  C 175.82 859.46 150.13 832.09 128.22 803.04
  C 120.14 792.33 111.90 779.50 103.83 767.67
  Q 93.97 753.24 80.69 725.93
  Q 75.69 715.67 70.97 705.28
  C 56.41 673.31 46.34 639.76 39.56 605.33
  Q 37.75 596.11 36.35 585.60
  Q 32.44 556.40 31.27 531.00
  C 29.25 487.13 34.43 442.34 43.60 398.76
  Q 45.72 388.68 48.41 379.35
  Q 67.68 312.49 102.92 256.93
  Q 132.21 210.76 167.61 175.36
  C 218.20 124.77 281.10 81.64 348.92 58.22
  C 415.59 35.20 484.31 26.45 554.55 32.09
  C 572.01 33.49 589.47 36.58 606.54 40.24
  A 1.73 1.73 0.0 0 0 608.57 39.02
  L 614.14 19.34"
/>
<path stroke="#3d4d6c" vector-effect="non-scaling-stroke" d="
  M 615.56 11.05
  L 614.14 19.34"
/>
<path stroke="#728296" vector-effect="non-scaling-stroke" d="
  M 418.24 560.31
  L 414.76 588.99"
/>
<path stroke="#213b61" vector-effect="non-scaling-stroke" d="
  M 414.76 588.99
  Q 406.91 589.65 390.52 592.80
  Q 363.00 598.08 341.79 606.31
  Q 324.75 612.92 305.50 624.03
  C 290.10 632.92 276.12 641.87 263.26 653.29
  C 240.16 673.79 221.45 700.69 216.75 731.92
  C 213.33 754.59 222.82 772.85 245.01 779.73
  Q 258.51 783.91 267.76 785.69
  Q 300.81 792.06 339.74 795.90
  Q 383.77 800.24 408.50 801.43
  C 424.36 802.19 439.87 803.28 456.08 803.57
  C 503.01 804.39 559.43 805.15 615.00 801.04
  C 632.32 799.75 649.69 798.69 666.93 796.86
  C 703.23 793.02 739.93 789.19 775.50 780.75
  C 784.02 778.73 793.83 775.27 799.78 768.59
  C 806.67 760.83 808.99 746.85 808.40 736.86
  Q 807.24 717.37 797.59 699.44
  C 771.19 650.41 723.43 622.00 672.80 603.49
  Q 654.92 596.96 632.50 594.01
  Q 622.06 592.64 609.26 587.52"
/>
<path stroke="#728296" vector-effect="non-scaling-stroke" d="
  M 609.26 587.52
  L 605.70 561.74"
/>
<path stroke="#868f98" vector-effect="non-scaling-stroke" d="
  M 605.70 561.74
  Q 618.99 550.26 630.43 536.97
  C 645.62 519.35 657.59 496.68 662.74 473.94
  Q 662.86 473.42 663.39 473.45
  C 666.31 473.65 668.52 473.70 671.22 472.38
  Q 698.79 458.90 699.60 428.70
  C 700.10 409.82 689.14 390.14 669.35 386.34
  Q 668.85 386.25 668.86 385.73
  Q 669.11 373.46 668.16 361.27
  Q 665.09 322.05 642.77 289.92
  Q 604.20 234.37 537.17 222.75
  C 482.25 213.23 427.05 233.79 391.56 276.23
  C 381.45 288.32 373.16 300.70 367.05 315.03
  Q 352.85 348.29 354.80 384.28
  Q 354.82 384.76 354.38 384.94
  Q 331.99 394.05 326.37 415.64
  C 321.47 434.46 327.93 453.55 342.56 466.41
  Q 350.21 473.15 360.22 473.90
  Q 360.67 473.94 360.80 474.38
  C 370.45 507.96 391.18 538.97 418.24 560.31"
/>
<path stroke="#dbe2f5" vector-effect="non-scaling-stroke" d="
  M 605.70 561.74
  Q 592.40 570.77 586.07 574.32
  C 554.00 592.27 514.22 596.24 478.77 587.45
  Q 445.57 579.22 418.24 560.31"
/>
<path stroke="#768ebe" vector-effect="non-scaling-stroke" d="
  M 609.26 587.52
  Q 609.65 592.79 610.01 598.00
  C 610.31 602.31 606.23 606.91 603.03 610.03
  C 587.95 624.76 570.83 637.34 550.00 642.99
  Q 508.11 654.35 467.54 640.72
  Q 434.89 629.75 414.21 599.80
  Q 413.94 599.41 413.98 598.94
  L 414.76 588.99"
/>
<path stroke="#3a6bbe" vector-effect="non-scaling-stroke" d="
  M 564.69 658.42
  C 539.47 668.56 511.48 669.80 484.44 665.41
  Q 467.98 662.74 452.84 655.83
  C 432.60 646.60 411.26 631.75 399.75 612.34
  A 1.25 1.25 0.0 0 0 398.71 611.73
  C 389.64 611.54 379.08 614.88 370.47 617.64
  Q 341.66 626.88 314.79 640.75
  C 284.87 656.18 259.98 678.20 243.42 707.68
  Q 236.05 720.79 234.63 735.55
  C 233.67 745.48 235.97 758.59 247.50 761.33
  Q 269.44 766.55 283.88 768.87
  C 367.73 782.29 456.93 786.88 538.25 785.34
  Q 626.59 783.68 725.49 770.48
  Q 759.00 766.01 769.51 763.49
  C 777.70 761.53 784.38 760.26 787.78 752.24
  Q 790.83 745.01 789.77 737.20
  C 784.93 701.61 760.56 674.75 731.08 654.47
  C 707.52 638.25 680.83 626.72 653.53 617.58
  C 644.79 614.65 636.54 612.76 627.77 611.47
  A 2.11 2.11 0.0 0 0 625.81 612.24
  C 609.26 632.84 589.31 648.51 564.69 658.42"
/>
</g>
<path fill="#1d2f39" d="
  M 0.00 0.00
  L 1024.00 0.00
  L 1024.00 1024.00
  L 0.00 1024.00
  L 0.00 0.00
  Z
  M 614.14 19.34
  Q 616.40 21.72 617.30 23.16
  C 620.93 28.94 614.49 38.23 611.34 42.71
  A 0.68 0.68 0.0 0 0 611.74 43.76
  Q 614.42 44.42 617.22 45.27
  Q 734.97 80.84 826.21 163.04
  Q 843.05 178.20 859.39 194.85
  A 1.17 1.17 0.0 0 0 860.99 194.93
  L 866.12 190.66
  A 1.99 1.99 0.0 0 1 868.72 190.71
  L 873.18 194.71
  A 1.69 1.68 46.7 0 0 875.33 194.78
  L 894.37 179.81
  A 0.90 0.89 -40.4 0 0 894.48 178.50
  Q 856.53 136.70 811.09 102.94
  Q 770.60 72.84 731.71 52.07
  C 694.48 32.19 657.10 19.34 615.56 11.05
  Q 608.76 9.41 597.00 8.01
  Q 577.32 5.67 557.62 3.37
  Q 534.45 0.66 500.93 0.75
  C 493.06 0.78 484.36 1.32 477.25 1.99
  C 423.22 7.01 370.80 18.63 319.99 39.21
  C 293.25 50.04 267.87 62.04 244.25 76.98
  Q 219.82 92.44 204.41 104.15
  Q 172.55 128.36 139.18 163.15
  Q 128.06 174.75 120.45 184.45
  C 93.76 218.44 68.53 254.16 49.41 295.00
  C 39.13 316.97 30.81 337.24 24.47 358.76
  C 9.13 410.82 0.63 465.66 1.68 520.25
  Q 1.87 530.18 2.28 540.24
  C 3.09 560.15 5.79 578.30 8.28 597.25
  Q 9.97 610.14 15.37 631.22
  Q 22.28 658.23 31.43 684.55
  C 39.17 706.79 48.84 728.40 59.68 749.31
  Q 77.46 783.63 100.68 814.54
  Q 113.86 832.08 123.43 843.06
  Q 139.09 861.01 143.96 866.04
  Q 169.79 892.71 199.53 914.94
  Q 211.77 924.08 224.03 933.20
  Q 233.12 939.96 259.40 955.60
  C 281.25 968.61 307.00 980.14 332.54 989.95
  Q 374.76 1006.16 419.51 1013.51
  Q 463.10 1020.66 479.75 1022.20
  Q 498.93 1023.98 510.50 1023.79
  Q 548.54 1023.17 590.29 1016.52
  C 615.12 1012.57 639.72 1006.41 663.74 999.02
  C 696.32 989.01 728.48 975.82 758.19 959.10
  C 809.97 929.95 858.00 892.25 896.78 847.05
  C 907.70 834.31 916.12 824.43 928.07 808.07
  C 954.40 772.01 974.41 733.40 990.20 691.72
  C 1002.37 659.59 1010.38 626.44 1016.34 592.62
  C 1022.48 557.74 1023.21 523.59 1022.08 486.00
  C 1020.29 426.40 1005.53 367.95 982.99 312.53
  Q 978.03 300.32 969.30 283.69
  Q 946.71 240.62 918.08 204.26
  C 912.45 197.10 906.01 189.96 899.75 183.01
  Q 898.33 181.43 896.93 180.61
  Q 896.32 180.25 895.77 180.69
  L 876.49 196.13
  Q 875.69 196.77 876.33 197.57
  Q 883.88 206.91 890.96 215.74
  C 911.65 241.56 929.32 269.72 943.85 299.46
  Q 957.54 327.49 965.94 349.28
  Q 979.01 383.17 985.91 421.39
  C 989.87 443.34 991.63 465.37 992.87 488.50
  Q 995.06 529.44 990.22 567.99
  C 986.50 597.60 982.46 623.64 974.15 651.32
  C 953.55 720.02 917.38 784.29 868.43 836.69
  Q 832.85 874.78 789.84 905.57
  C 771.22 918.91 750.75 930.13 730.45 940.69
  C 702.41 955.27 673.49 966.05 643.20 974.91
  Q 602.85 986.72 561.00 990.78
  C 533.80 993.42 506.29 994.11 479.04 992.03
  C 435.05 988.68 389.97 980.38 344.56 963.91
  Q 309.69 951.26 272.44 929.32
  Q 233.73 906.51 204.13 882.46
  C 175.82 859.46 150.13 832.09 128.22 803.04
  C 120.14 792.33 111.90 779.50 103.83 767.67
  Q 93.97 753.24 80.69 725.93
  Q 75.69 715.67 70.97 705.28
  C 56.41 673.31 46.34 639.76 39.56 605.33
  Q 37.75 596.11 36.35 585.60
  Q 32.44 556.40 31.27 531.00
  C 29.25 487.13 34.43 442.34 43.60 398.76
  Q 45.72 388.68 48.41 379.35
  Q 67.68 312.49 102.92 256.93
  Q 132.21 210.76 167.61 175.36
  C 218.20 124.77 281.10 81.64 348.92 58.22
  C 415.59 35.20 484.31 26.45 554.55 32.09
  C 572.01 33.49 589.47 36.58 606.54 40.24
  A 1.73 1.73 0.0 0 0 608.57 39.02
  L 614.14 19.34
  Z
  M 418.24 560.31
  L 414.76 588.99
  Q 406.91 589.65 390.52 592.80
  Q 363.00 598.08 341.79 606.31
  Q 324.75 612.92 305.50 624.03
  C 290.10 632.92 276.12 641.87 263.26 653.29
  C 240.16 673.79 221.45 700.69 216.75 731.92
  C 213.33 754.59 222.82 772.85 245.01 779.73
  Q 258.51 783.91 267.76 785.69
  Q 300.81 792.06 339.74 795.90
  Q 383.77 800.24 408.50 801.43
  C 424.36 802.19 439.87 803.28 456.08 803.57
  C 503.01 804.39 559.43 805.15 615.00 801.04
  C 632.32 799.75 649.69 798.69 666.93 796.86
  C 703.23 793.02 739.93 789.19 775.50 780.75
  C 784.02 778.73 793.83 775.27 799.78 768.59
  C 806.67 760.83 808.99 746.85 808.40 736.86
  Q 807.24 717.37 797.59 699.44
  C 771.19 650.41 723.43 622.00 672.80 603.49
  Q 654.92 596.96 632.50 594.01
  Q 622.06 592.64 609.26 587.52
  L 605.70 561.74
  Q 618.99 550.26 630.43 536.97
  C 645.62 519.35 657.59 496.68 662.74 473.94
  Q 662.86 473.42 663.39 473.45
  C 666.31 473.65 668.52 473.70 671.22 472.38
  Q 698.79 458.90 699.60 428.70
  C 700.10 409.82 689.14 390.14 669.35 386.34
  Q 668.85 386.25 668.86 385.73
  Q 669.11 373.46 668.16 361.27
  Q 665.09 322.05 642.77 289.92
  Q 604.20 234.37 537.17 222.75
  C 482.25 213.23 427.05 233.79 391.56 276.23
  C 381.45 288.32 373.16 300.70 367.05 315.03
  Q 352.85 348.29 354.80 384.28
  Q 354.82 384.76 354.38 384.94
  Q 331.99 394.05 326.37 415.64
  C 321.47 434.46 327.93 453.55 342.56 466.41
  Q 350.21 473.15 360.22 473.90
  Q 360.67 473.94 360.80 474.38
  C 370.45 507.96 391.18 538.97 418.24 560.31
  Z"
/>
<path fill="#244789" d="
  M 615.56 11.05
  L 614.14 19.34
  L 608.57 39.02
  A 1.73 1.73 0.0 0 1 606.54 40.24
  C 589.47 36.58 572.01 33.49 554.55 32.09
  C 484.31 26.45 415.59 35.20 348.92 58.22
  C 281.10 81.64 218.20 124.77 167.61 175.36
  Q 132.21 210.76 102.92 256.93
  Q 67.68 312.49 48.41 379.35
  Q 45.72 388.68 43.60 398.76
  C 34.43 442.34 29.25 487.13 31.27 531.00
  Q 32.44 556.40 36.35 585.60
  Q 37.75 596.11 39.56 605.33
  C 46.34 639.76 56.41 673.31 70.97 705.28
  Q 75.69 715.67 80.69 725.93
  Q 93.97 753.24 103.83 767.67
  C 111.90 779.50 120.14 792.33 128.22 803.04
  C 150.13 832.09 175.82 859.46 204.13 882.46
  Q 233.73 906.51 272.44 929.32
  Q 309.69 951.26 344.56 963.91
  C 389.97 980.38 435.05 988.68 479.04 992.03
  C 506.29 994.11 533.80 993.42 561.00 990.78
  Q 602.85 986.72 643.20 974.91
  C 673.49 966.05 702.41 955.27 730.45 940.69
  C 750.75 930.13 771.22 918.91 789.84 905.57
  Q 832.85 874.78 868.43 836.69
  C 917.38 784.29 953.55 720.02 974.15 651.32
  C 982.46 623.64 986.50 597.60 990.22 567.99
  Q 995.06 529.44 992.87 488.50
  C 991.63 465.37 989.87 443.34 985.91 421.39
  Q 979.01 383.17 965.94 349.28
  Q 957.54 327.49 943.85 299.46
  C 929.32 269.72 911.65 241.56 890.96 215.74
  Q 883.88 206.91 876.33 197.57
  Q 875.69 196.77 876.49 196.13
  L 895.77 180.69
  Q 896.32 180.25 896.93 180.61
  Q 898.33 181.43 899.75 183.01
  C 906.01 189.96 912.45 197.10 918.08 204.26
  Q 946.71 240.62 969.30 283.69
  Q 978.03 300.32 982.99 312.53
  C 1005.53 367.95 1020.29 426.40 1022.08 486.00
  C 1023.21 523.59 1022.48 557.74 1016.34 592.62
  C 1010.38 626.44 1002.37 659.59 990.20 691.72
  C 974.41 733.40 954.40 772.01 928.07 808.07
  C 916.12 824.43 907.70 834.31 896.78 847.05
  C 858.00 892.25 809.97 929.95 758.19 959.10
  C 728.48 975.82 696.32 989.01 663.74 999.02
  C 639.72 1006.41 615.12 1012.57 590.29 1016.52
  Q 548.54 1023.17 510.50 1023.79
  Q 498.93 1023.98 479.75 1022.20
  Q 463.10 1020.66 419.51 1013.51
  Q 374.76 1006.16 332.54 989.95
  C 307.00 980.14 281.25 968.61 259.40 955.60
  Q 233.12 939.96 224.03 933.20
  Q 211.77 924.08 199.53 914.94
  Q 169.79 892.71 143.96 866.04
  Q 139.09 861.01 123.43 843.06
  Q 113.86 832.08 100.68 814.54
  Q 77.46 783.63 59.68 749.31
  C 48.84 728.40 39.17 706.79 31.43 684.55
  Q 22.28 658.23 15.37 631.22
  Q 9.97 610.14 8.28 597.25
  C 5.79 578.30 3.09 560.15 2.28 540.24
  Q 1.87 530.18 1.68 520.25
  C 0.63 465.66 9.13 410.82 24.47 358.76
  C 30.81 337.24 39.13 316.97 49.41 295.00
  C 68.53 254.16 93.76 218.44 120.45 184.45
  Q 128.06 174.75 139.18 163.15
  Q 172.55 128.36 204.41 104.15
  Q 219.82 92.44 244.25 76.98
  C 267.87 62.04 293.25 50.04 319.99 39.21
  C 370.80 18.63 423.22 7.01 477.25 1.99
  C 484.36 1.32 493.06 0.78 500.93 0.75
  Q 534.45 0.66 557.62 3.37
  Q 577.32 5.67 597.00 8.01
  Q 608.76 9.41 615.56 11.05
  Z"
/>
<path fill="#55524e" d="
  M 615.56 11.05
  C 657.10 19.34 694.48 32.19 731.71 52.07
  Q 770.60 72.84 811.09 102.94
  Q 856.53 136.70 894.48 178.50
  A 0.90 0.89 -40.4 0 1 894.37 179.81
  L 875.33 194.78
  A 1.69 1.68 46.7 0 1 873.18 194.71
  L 868.72 190.71
  A 1.99 1.99 0.0 0 0 866.12 190.66
  L 860.99 194.93
  A 1.17 1.17 0.0 0 1 859.39 194.85
  Q 843.05 178.20 826.21 163.04
  Q 734.97 80.84 617.22 45.27
  Q 614.42 44.42 611.74 43.76
  A 0.68 0.68 0.0 0 1 611.34 42.71
  C 614.49 38.23 620.93 28.94 617.30 23.16
  Q 616.40 21.72 614.14 19.34
  L 615.56 11.05
  Z"
/>
<path fill="#efeff7" d="
  M 605.70 561.74
  Q 592.40 570.77 586.07 574.32
  C 554.00 592.27 514.22 596.24 478.77 587.45
  Q 445.57 579.22 418.24 560.31
  C 391.18 538.97 370.45 507.96 360.80 474.38
  Q 360.67 473.94 360.22 473.90
  Q 350.21 473.15 342.56 466.41
  C 327.93 453.55 321.47 434.46 326.37 415.64
  Q 331.99 394.05 354.38 384.94
  Q 354.82 384.76 354.80 384.28
  Q 352.85 348.29 367.05 315.03
  C 373.16 300.70 381.45 288.32 391.56 276.23
  C 427.05 233.79 482.25 213.23 537.17 222.75
  Q 604.20 234.37 642.77 289.92
  Q 665.09 322.05 668.16 361.27
  Q 669.11 373.46 668.86 385.73
  Q 668.85 386.25 669.35 386.34
  C 689.14 390.14 700.10 409.82 699.60 428.70
  Q 698.79 458.90 671.22 472.38
  C 668.52 473.70 666.31 473.65 663.39 473.45
  Q 662.86 473.42 662.74 473.94
  C 657.59 496.68 645.62 519.35 630.43 536.97
  Q 618.99 550.26 605.70 561.74
  Z"
/>
<path fill="#c7d4f2" d="
  M 418.24 560.31
  Q 445.57 579.22 478.77 587.45
  C 514.22 596.24 554.00 592.27 586.07 574.32
  Q 592.40 570.77 605.70 561.74
  L 609.26 587.52
  Q 609.65 592.79 610.01 598.00
  C 610.31 602.31 606.23 606.91 603.03 610.03
  C 587.95 624.76 570.83 637.34 550.00 642.99
  Q 508.11 654.35 467.54 640.72
  Q 434.89 629.75 414.21 599.80
  Q 413.94 599.41 413.98 598.94
  L 414.76 588.99
  L 418.24 560.31
  Z"
/>
<path fill="#244789" d="
  M 609.26 587.52
  Q 622.06 592.64 632.50 594.01
  Q 654.92 596.96 672.80 603.49
  C 723.43 622.00 771.19 650.41 797.59 699.44
  Q 807.24 717.37 808.40 736.86
  C 808.99 746.85 806.67 760.83 799.78 768.59
  C 793.83 775.27 784.02 778.73 775.50 780.75
  C 739.93 789.19 703.23 793.02 666.93 796.86
  C 649.69 798.69 632.32 799.75 615.00 801.04
  C 559.43 805.15 503.01 804.39 456.08 803.57
  C 439.87 803.28 424.36 802.19 408.50 801.43
  Q 383.77 800.24 339.74 795.90
  Q 300.81 792.06 267.76 785.69
  Q 258.51 783.91 245.01 779.73
  C 222.82 772.85 213.33 754.59 216.75 731.92
  C 221.45 700.69 240.16 673.79 263.26 653.29
  C 276.12 641.87 290.10 632.92 305.50 624.03
  Q 324.75 612.92 341.79 606.31
  Q 363.00 598.08 390.52 592.80
  Q 406.91 589.65 414.76 588.99
  L 413.98 598.94
  Q 413.94 599.41 414.21 599.80
  Q 434.89 629.75 467.54 640.72
  Q 508.11 654.35 550.00 642.99
  C 570.83 637.34 587.95 624.76 603.03 610.03
  C 606.23 606.91 610.31 602.31 610.01 598.00
  Q 609.65 592.79 609.26 587.52
  Z
  M 564.69 658.42
  C 539.47 668.56 511.48 669.80 484.44 665.41
  Q 467.98 662.74 452.84 655.83
  C 432.60 646.60 411.26 631.75 399.75 612.34
  A 1.25 1.25 0.0 0 0 398.71 611.73
  C 389.64 611.54 379.08 614.88 370.47 617.64
  Q 341.66 626.88 314.79 640.75
  C 284.87 656.18 259.98 678.20 243.42 707.68
  Q 236.05 720.79 234.63 735.55
  C 233.67 745.48 235.97 758.59 247.50 761.33
  Q 269.44 766.55 283.88 768.87
  C 367.73 782.29 456.93 786.88 538.25 785.34
  Q 626.59 783.68 725.49 770.48
  Q 759.00 766.01 769.51 763.49
  C 777.70 761.53 784.38 760.26 787.78 752.24
  Q 790.83 745.01 789.77 737.20
  C 784.93 701.61 760.56 674.75 731.08 654.47
  C 707.52 638.25 680.83 626.72 653.53 617.58
  C 644.79 614.65 636.54 612.76 627.77 611.47
  A 2.11 2.11 0.0 0 0 625.81 612.24
  C 609.26 632.84 589.31 648.51 564.69 658.42
  Z"
/>
<path fill="#508ef3" d="
  M 564.69 658.42
  C 589.31 648.51 609.26 632.84 625.81 612.24
  A 2.11 2.11 0.0 0 1 627.77 611.47
  C 636.54 612.76 644.79 614.65 653.53 617.58
  C 680.83 626.72 707.52 638.25 731.08 654.47
  C 760.56 674.75 784.93 701.61 789.77 737.20
  Q 790.83 745.01 787.78 752.24
  C 784.38 760.26 777.70 761.53 769.51 763.49
  Q 759.00 766.01 725.49 770.48
  Q 626.59 783.68 538.25 785.34
  C 456.93 786.88 367.73 782.29 283.88 768.87
  Q 269.44 766.55 247.50 761.33
  C 235.97 758.59 233.67 745.48 234.63 735.55
  Q 236.05 720.79 243.42 707.68
  C 259.98 678.20 284.87 656.18 314.79 640.75
  Q 341.66 626.88 370.47 617.64
  C 379.08 614.88 389.64 611.54 398.71 611.73
  A 1.25 1.25 0.0 0 1 399.75 612.34
  C 411.26 631.75 432.60 646.60 452.84 655.83
  Q 467.98 662.74 484.44 665.41
  C 511.48 669.80 539.47 668.56 564.69 658.42
  Z"
/>
</svg>
